<svg xmlns="http://www.w3.org/2000/svg" id="Capa_1" data-name="Capa 1" viewBox="0 0 200 130"><defs><style>
      .cls-1 {
        fill: #696969;
      }
    </style></defs><path class="cls-1" d="M59.22,97.94c-.14.26-.36.47-.66.63-.3.16-.67.24-1.13.24h-.93v2.12h-1.11v-5.53h2.03c.43,0,.79.07,1.09.22.3.15.53.35.68.61.15.26.23.55.23.88,0,.3-.07.57-.21.83M58.07,97.7c.15-.14.22-.34.22-.59,0-.54-.3-.81-.9-.81h-.88v1.61h.88c.31,0,.53-.07.68-.21"></path><path class="cls-1" d="M63.34,100.92l-1.22-2.15h-.52v2.15h-1.11v-5.53h2.07c.43,0,.79.08,1.09.23.3.15.53.35.68.61.15.26.23.54.23.86,0,.36-.11.69-.32.98-.21.29-.53.5-.94.61l1.32,2.24h-1.28ZM61.6,97.94h.93c.3,0,.53-.07.67-.22.15-.14.22-.35.22-.61s-.07-.45-.22-.59c-.15-.14-.37-.21-.67-.21h-.93v1.62Z"></path><path class="cls-1" d="M66.98,100.61c-.43-.24-.78-.58-1.03-1.01-.25-.43-.38-.92-.38-1.46s.13-1.02.38-1.45c.25-.43.6-.77,1.03-1.01s.91-.36,1.43-.36,1,.12,1.43.36.77.58,1.02,1.01c.25.43.38.91.38,1.45s-.12,1.03-.38,1.46c-.25.43-.59.77-1.02,1.01-.43.24-.91.36-1.42.36s-.99-.12-1.43-.36M69.29,99.76c.25-.15.45-.37.59-.65.14-.28.21-.6.21-.97s-.07-.69-.21-.97c-.14-.28-.34-.49-.59-.64-.25-.15-.55-.22-.88-.22s-.63.07-.88.22c-.26.15-.46.36-.6.64-.14.28-.21.6-.21.97s.07.69.21.97c.14.28.34.49.6.65.26.15.55.23.88.23s.63-.07.88-.23"></path><polygon class="cls-1" points="75.75 95.4 75.75 96.29 73.44 96.29 73.44 97.71 75.21 97.71 75.21 98.59 73.44 98.59 73.44 100.92 72.33 100.92 72.33 95.4 75.75 95.4"></polygon><polygon class="cls-1" points="77.92 96.29 77.92 97.68 79.78 97.68 79.78 98.56 77.92 98.56 77.92 100.02 80.01 100.02 80.01 100.92 76.81 100.92 76.81 95.39 80.01 95.39 80.01 96.29 77.92 96.29"></polygon><path class="cls-1" d="M82.16,100.78c-.31-.13-.55-.32-.73-.57s-.27-.54-.28-.88h1.19c.02.23.1.41.24.54.15.13.34.2.6.2s.46-.06.61-.19c.15-.12.22-.29.22-.49,0-.16-.05-.3-.15-.4-.1-.11-.23-.19-.38-.25-.15-.06-.36-.13-.62-.2-.36-.1-.65-.21-.87-.31-.23-.1-.42-.26-.58-.47-.16-.21-.24-.49-.24-.83,0-.33.08-.61.25-.86.16-.24.39-.43.69-.56.3-.13.63-.19,1.01-.19.57,0,1.03.14,1.39.42.36.28.55.66.59,1.16h-1.22c-.01-.19-.09-.35-.24-.47-.15-.12-.35-.19-.6-.19-.22,0-.39.06-.52.17-.13.11-.19.27-.19.48,0,.15.05.27.15.37.1.1.22.18.36.24.14.06.35.13.61.21.36.11.65.21.88.32.23.1.42.26.59.47.16.21.25.49.25.83,0,.3-.08.57-.23.82-.15.25-.38.46-.67.61-.3.15-.65.23-1.05.23-.39,0-.73-.07-1.04-.2"></path><path class="cls-1" d="M87.26,100.78c-.31-.13-.55-.32-.73-.57s-.27-.54-.28-.88h1.19c.02.23.1.41.24.54.15.13.34.2.6.2s.46-.06.61-.19c.15-.12.22-.29.22-.49,0-.16-.05-.3-.15-.4-.1-.11-.23-.19-.38-.25-.15-.06-.36-.13-.62-.2-.36-.1-.65-.21-.87-.31-.23-.1-.42-.26-.58-.47-.16-.21-.24-.49-.24-.83,0-.33.08-.61.25-.86.16-.24.39-.43.69-.56.3-.13.63-.19,1.01-.19.57,0,1.03.14,1.39.42.36.28.55.66.59,1.16h-1.22c-.01-.19-.09-.35-.24-.47-.15-.12-.35-.19-.6-.19-.22,0-.39.06-.52.17-.13.11-.19.27-.19.48,0,.15.05.27.15.37.1.1.22.18.36.24.14.06.35.13.61.21.36.11.65.21.88.32.23.1.42.26.59.47.16.21.25.49.25.83,0,.3-.08.57-.23.82-.15.25-.38.46-.67.61-.3.15-.65.23-1.05.23-.39,0-.73-.07-1.04-.2"></path><rect class="cls-1" x="91.49" y="95.4" width="1.11" height="5.53"></rect><path class="cls-1" d="M95.11,100.61c-.43-.24-.78-.58-1.03-1.01-.25-.43-.38-.92-.38-1.46s.13-1.02.38-1.45c.25-.43.6-.77,1.03-1.01s.91-.36,1.43-.36,1,.12,1.43.36.77.58,1.02,1.01c.25.43.38.91.38,1.45s-.12,1.03-.38,1.46c-.25.43-.59.77-1.02,1.01-.43.24-.91.36-1.42.36s-.99-.12-1.43-.36M97.41,99.76c.25-.15.45-.37.59-.65.14-.28.21-.6.21-.97s-.07-.69-.21-.97c-.14-.28-.34-.49-.59-.64-.25-.15-.55-.22-.88-.22s-.63.07-.88.22c-.26.15-.46.36-.6.64-.14.28-.21.6-.21.97s.07.69.21.97c.14.28.34.49.6.65.26.15.55.23.88.23s.63-.07.88-.23"></path><polygon class="cls-1" points="105.19 100.92 104.08 100.92 101.57 97.13 101.57 100.92 100.46 100.92 100.46 95.39 101.57 95.39 104.08 99.19 104.08 95.39 105.19 95.39 105.19 100.92"></polygon><path class="cls-1" d="M109.95,99.87h-2.2l-.36,1.05h-1.16l1.99-5.53h1.29l1.99,5.53h-1.17l-.36-1.05ZM109.65,98.98l-.8-2.31-.8,2.31h1.6Z"></path><polygon class="cls-1" points="113.61 100.04 115.43 100.04 115.43 100.92 112.5 100.92 112.5 95.4 113.61 95.4 113.61 100.04"></polygon><path class="cls-1" d="M119.44,100.78c-.31-.13-.55-.32-.73-.57-.18-.25-.27-.54-.28-.88h1.19c.02.23.1.41.24.54.15.13.34.2.6.2s.46-.06.61-.19c.15-.12.22-.29.22-.49,0-.16-.05-.3-.15-.4-.1-.11-.23-.19-.38-.25-.15-.06-.36-.13-.62-.2-.36-.1-.65-.21-.87-.31-.23-.1-.42-.26-.58-.47-.16-.21-.24-.49-.24-.83,0-.33.08-.61.25-.86.16-.24.39-.43.69-.56.3-.13.63-.19,1.01-.19.57,0,1.03.14,1.39.42.36.28.55.66.59,1.16h-1.22c-.01-.19-.09-.35-.24-.47-.15-.12-.35-.19-.6-.19-.22,0-.39.06-.52.17-.13.11-.19.27-.19.48,0,.15.05.27.15.37.1.1.22.18.36.24.14.06.35.13.61.21.36.11.65.21.88.32.23.1.42.26.59.47.16.21.25.49.25.83,0,.3-.08.57-.23.82-.15.25-.38.46-.67.61-.3.15-.65.23-1.05.23-.39,0-.73-.07-1.04-.2"></path><polygon class="cls-1" points="128.26 95.4 128.26 100.92 127.15 100.92 127.15 98.57 124.78 98.57 124.78 100.92 123.67 100.92 123.67 95.4 124.78 95.4 124.78 97.67 127.15 97.67 127.15 95.4 128.26 95.4"></polygon><path class="cls-1" d="M130.77,100.61c-.43-.24-.78-.58-1.03-1.01-.25-.43-.38-.92-.38-1.46s.13-1.02.38-1.45c.25-.43.6-.77,1.03-1.01s.91-.36,1.43-.36,1,.12,1.43.36c.43.24.77.58,1.02,1.01.25.43.38.91.38,1.45s-.12,1.03-.38,1.46c-.25.43-.59.77-1.02,1.01-.43.24-.91.36-1.42.36s-.99-.12-1.43-.36M133.07,99.76c.25-.15.45-.37.59-.65.14-.28.21-.6.21-.97s-.07-.69-.21-.97c-.14-.28-.34-.49-.59-.64-.25-.15-.55-.22-.88-.22s-.63.07-.88.22c-.26.15-.46.36-.6.64-.14.28-.21.6-.21.97s.07.69.21.97c.14.28.34.49.6.65.26.15.55.23.88.23s.63-.07.88-.23"></path><polygon class="cls-1" points="137.23 96.29 137.23 97.68 139.09 97.68 139.09 98.56 137.23 98.56 137.23 100.02 139.33 100.02 139.33 100.92 136.12 100.92 136.12 95.39 139.33 95.39 139.33 96.29 137.23 96.29"></polygon><path class="cls-1" d="M141.48,100.78c-.31-.13-.55-.32-.73-.57-.18-.25-.27-.54-.28-.88h1.19c.02.23.1.41.24.54.15.13.34.2.6.2s.46-.06.61-.19c.15-.12.22-.29.22-.49,0-.16-.05-.3-.15-.4-.1-.11-.23-.19-.38-.25-.15-.06-.36-.13-.62-.2-.36-.1-.65-.21-.87-.31-.23-.1-.42-.26-.58-.47-.16-.21-.24-.49-.24-.83,0-.33.08-.61.25-.86.16-.24.39-.43.69-.56.3-.13.63-.19,1.01-.19.57,0,1.03.14,1.39.42.36.28.55.66.59,1.16h-1.22c-.01-.19-.09-.35-.24-.47-.15-.12-.35-.19-.6-.19-.22,0-.39.06-.52.17-.13.11-.19.27-.19.48,0,.15.05.27.15.37.1.1.22.18.36.24.14.06.35.13.61.21.36.11.65.21.88.32.23.1.42.26.59.47.16.21.25.49.25.83,0,.3-.08.57-.23.82-.15.25-.38.46-.67.61-.3.15-.65.23-1.05.23-.39,0-.73-.07-1.04-.2"></path><path class="cls-1" d="M46.35,71.1c-.29-.24-.67-.35-1.14-.35-.57,0-1.06.22-1.47.65-.41.43-.68,1.28-.81,2.56-.13,1.27-.19,3.04-.19,5.31,0,1.2.08,2.32.24,3.37.12.8.39,1.4.79,1.82.4.41.86.62,1.38.62s.93-.14,1.26-.42c.44-.38.73-.91.87-1.6.22-1.07.34-3.22.34-6.46,0-1.91-.11-3.22-.32-3.93-.21-.71-.53-1.23-.94-1.56"></path><path class="cls-1" d="M127.12,71.1c-.29-.24-.67-.35-1.14-.35-.57,0-1.06.22-1.47.65-.41.43-.68,1.28-.81,2.56-.13,1.27-.19,3.04-.19,5.31,0,1.2.08,2.32.24,3.37.12.8.39,1.4.79,1.82.4.41.86.62,1.38.62s.93-.14,1.26-.42c.44-.38.73-.91.87-1.6.22-1.07.34-3.22.34-6.46,0-1.91-.11-3.22-.32-3.93-.21-.71-.53-1.23-.94-1.56"></path><path class="cls-1" d="M181.51,55.69h-61.21c.49-1.79.76-3.67.76-5.61,0-11.63-9.43-21.06-21.06-21.06s-21.06,9.43-21.06,21.06c0,1.94.26,3.82.76,5.61H18.49c-2.78,0-5.04,2.26-5.04,5.04v26.28c0,2.78,2.26,5.04,5.04,5.04h163.03c2.78,0,5.04-2.26,5.04-5.04v-26.28c0-2.78-2.26-5.04-5.04-5.04M32.95,84.24c-1.49,1.38-3.37,2.06-5.66,2.06-.72,0-1.4-.07-2.04-.22-.64-.15-1.44-.42-2.41-.82-.54-.23-.98-.34-1.33-.34-.29,0-.6.11-.93.34-.33.22-.59.57-.79,1.03h-.62v-8.62h.62c.49,2.42,1.45,4.27,2.85,5.55,1.41,1.27,2.93,1.91,4.55,1.91,1.26,0,2.26-.34,3-1.03.75-.68,1.12-1.48,1.12-2.39,0-.54-.14-1.06-.43-1.57-.29-.5-.72-.98-1.31-1.44-.58-.45-1.62-1.05-3.1-1.78-2.08-1.02-3.57-1.89-4.48-2.61-.91-.72-1.61-1.52-2.1-2.41-.49-.89-.73-1.86-.73-2.93,0-1.82.67-3.37,2-4.65,1.34-1.28,3.02-1.92,5.05-1.92.74,0,1.46.09,2.15.27.53.13,1.17.38,1.93.75.76.37,1.29.55,1.59.55s.52-.09.69-.27c.17-.18.33-.61.47-1.3h.51l.19,7.61h-.69c-.33-1.91-1.12-3.44-2.4-4.6-1.27-1.16-2.65-1.74-4.13-1.74-1.15,0-2.05.31-2.72.92-.67.61-1,1.32-1,2.11,0,.5.12.95.35,1.35.33.53.85,1.05,1.57,1.57.53.37,1.75,1.03,3.65,1.97,2.67,1.31,4.47,2.55,5.4,3.72.92,1.17,1.38,2.5,1.38,4.01,0,1.91-.74,3.55-2.23,4.92M50.87,83.51c-1.37,1.82-3.26,2.73-5.67,2.73s-4.19-.83-5.47-2.49c-1.28-1.66-1.92-3.58-1.92-5.77s.65-4.22,1.96-5.9c1.31-1.68,3.1-2.52,5.38-2.52,1.37,0,2.64.35,3.82,1.06,1.18.71,2.07,1.71,2.68,3.01.61,1.3.92,2.73.92,4.28,0,2.23-.57,4.1-1.7,5.61M63.62,63.63c-.18-.17-.4-.25-.66-.25-.33,0-.6.13-.82.4-.22.27-.33.7-.33,1.3l.03,2.95v2h2.32v1.65h-2.32v10.93c0,1.05.11,1.72.34,1.99.36.42,1.02.61,1.99.57v.61h-9.28v-.61c.71-.01,1.21-.09,1.51-.24.3-.15.5-.36.62-.63.11-.27.17-.83.17-1.68v-10.93h-2.29v-1.65h2.29v-1.16l-.02-.79c0-1.62.59-2.96,1.78-4.04,1.18-1.08,2.79-1.62,4.81-1.62,1.38,0,2.4.26,3.07.77.67.52,1,1.09,1,1.72,0,.5-.21.94-.62,1.31-.42.37-.97.56-1.65.56-.58,0-1.05-.15-1.39-.45-.34-.3-.51-.64-.51-1.01,0-.1.03-.31.1-.62.04-.19.07-.37.07-.54,0-.24-.07-.41-.2-.52M76.42,71.69h-3.74v9.71c0,.91.04,1.5.13,1.76.08.26.23.48.45.64.21.16.41.24.59.24.73,0,1.42-.56,2.07-1.67l.5.37c-.91,2.15-2.38,3.23-4.43,3.23-1,0-1.84-.28-2.53-.83-.69-.56-1.13-1.18-1.32-1.86-.11-.38-.17-1.41-.17-3.1v-8.5h-2.05v-.59c1.41-1,2.62-2.05,3.61-3.15.99-1.1,1.86-2.33,2.6-3.69h.56v5.76h3.74v1.67ZM88.64,47.43c.52-.49,1.33-.49,1.88-.03.67.58,1.12.75,2.15.55.12-.02.23-.06.34-.1,1.05-.41,2.1-.63,3.15-.65.24,0,.48-.04.69-.15.59-.29.78-.87.66-1.69-.08-.04-.13-.09-.13-.15-.2-1.22-3.02-.96-1.05-3,.21-.22.32-.51.32-.81v-.49c0-.19-.16-.35-.35-.34l-1.45.03c-.19,0-.39.02-.57.06-1.53.34-.91,1.51-1.83,1.84-.7.25-1.44-.33-1.41-1.07.04-1.06,1.25-1.66,4.44-1.33.2.02.42,0,.6-.08.46-.22.6-.68.49-1.1-.19-.75-1.1-1.02-1.73-.57-1.92,1.37-2.81.59-2.01-1.15.28-.61.86-1.04,1.52-1.07,1.19-.04,1.87,1.14,2.62,2.16.63.73,1.36-.23.84-1.01-.3-.45-.44-1.01-.26-1.52.3-.87,1.16-1.34,2.61-1.37.46-.01.83.42.69.86-.21.65-1.25.27-1.84.79-1.05.84-.25,1.95,1.57,1.71,1.45-.3,2.33-1.11,2.85-2.26.11-.25.29-.46.51-.61.58-.37.96-.05.89.59-.05.39-.25.73-.54.99l-1.97,1.79c-.4.29-.06.75.34.46,1.74-1.17,3.52-2.24,5.8-2.06,1.07.08,1.19,1.67.13,1.86-.34.06-.71-.04-1-.4-1.29-1.08-2.56-.3-3.82,1.04-.06.06-.02.17.07.17l2.65.03c.45,0,.88.25,1.07.66.36.8-.48,1.49-1.56.72-.86-.62-1.7-1.15-2.45-.81-.4,3.31-.22,4.05-3.55,5.27,0,.06-.06.12-.16.16-.23.58-.17,1.04.32,1.18,3.63.44,5.17-.91,6.54-2.42.47-.64,1.07-1.02,1.84-1.1.79-.09,1.5.58,1.38,1.36-.12.76-.98,1.28-2.17,1.68-.53.18-1.02.43-1.51.7-.92.51-2.13.78-3.56.85-.45.02-.89.17-1.24.46-.16.14-.3.29-.39.47-.25.47-.07,1.12.39,1.41.31.2.6.4.84.61.65.57.86,1.49.56,2.29-.34.9-.22,1.46.41,1.67l1.85.56c.29.09.55.24.74.48.38.47.16.83-.55,1.11-.73.28-1.53.32-2.29.13-.78-.19-1.54-.3-2.28-.3-.46,0-.9-.24-1.11-.66-.35-.72.78-.7,1.4-1.75.06-.79.12-1.56-.03-2.01-.11-.34-.52-.45-.8-.23-.69.55-1.98.66-3.7.43-.18-.02-.35-.06-.52-.12-.58-.19-1.1-.14-1.6.19-.51.32-.74.75-.18,1.03.15.06.28.12.39.19.75.44.84,1.49.19,2.07-1.29,1.15-2.68,1.61-4.22,1.05-.95-.34-1.13-1.62-.29-2.18.37-.24.84-.35,1.35-.4.08,0,.16,0,.24,0,.44.02.61-.16.6-.49,0-.19-.08-.36-.18-.52-.67-1.12-.58-1.91.57-2.24.17-.05.36-.07.54-.08.65-.05,1.21-.26,1.68-.64.27-.21.46-.51.51-.85.13-.97-1.06-.97-2.87-.52-.22.06-.43.13-.64.21-1.65.64-3.07.79-4.1.11-.34-.31.05-1.13.65-1.69M117.07,64.84c-.07.14-.42,1.01-1.06,2.61l-7.15,18.84h-.66l-5.66-14.71-6.23,14.71h-.62l-7.51-18.63c-.76-1.87-1.3-3.01-1.6-3.4-.3-.39-.81-.62-1.53-.69v-.62h9.9v.62c-.8.02-1.33.14-1.59.36-.26.22-.4.49-.4.82,0,.43.27,1.33.82,2.71l4.48,11.08,3.59-8.65-.94-2.42c-.52-1.32-.92-2.21-1.2-2.65-.28-.44-.6-.76-.97-.95-.36-.19-.9-.29-1.61-.29v-.62h11.06v.62c-.77.01-1.33.07-1.67.19-.24.08-.42.21-.56.39-.13.19-.2.4-.2.63,0,.26.25,1.05.76,2.37l4.16,10.81,3.72-9.78c.39-1.01.63-1.7.72-2.07.09-.37.14-.71.14-1.03,0-.46-.16-.82-.47-1.09-.31-.26-.92-.41-1.8-.43v-.62h5.93v.62c-.43.03-.79.15-1.08.35-.29.2-.55.51-.77.93M131.63,83.51c-1.37,1.82-3.26,2.73-5.67,2.73s-4.19-.83-5.47-2.49c-1.28-1.66-1.92-3.58-1.92-5.77s.65-4.22,1.96-5.9c1.31-1.68,3.1-2.52,5.38-2.52,1.37,0,2.64.35,3.82,1.06,1.18.71,2.07,1.71,2.68,3.01.61,1.3.92,2.73.92,4.28,0,2.23-.57,4.1-1.7,5.61M148.79,73.53c-.36.42-.81.62-1.32.62-.59,0-1.11-.19-1.55-.57-.44-.38-.7-.59-.77-.64-.11-.07-.24-.1-.39-.1-.33,0-.63.12-.93.37-.46.38-.81.93-1.04,1.63-.36,1.09-.54,2.29-.54,3.6v3.62l.02.94c0,.64.04,1.05.12,1.23.13.3.33.53.6.67.26.14.71.23,1.34.26v.61h-8.5v-.61c.68-.06,1.15-.24,1.39-.56.24-.32.36-1.16.36-2.53v-8.7c0-.9-.05-1.47-.13-1.72-.11-.31-.28-.54-.49-.69-.21-.15-.59-.25-1.13-.3v-.62h6.43v3.57c1.04-1.63,1.96-2.71,2.74-3.24.78-.53,1.54-.8,2.27-.8.63,0,1.13.19,1.51.58.38.39.56.93.56,1.64,0,.75-.18,1.34-.55,1.75M169.36,85.76h-8.13v-.61c.36,0,.62-.07.78-.2.16-.13.24-.28.24-.44,0-.26-.24-.74-.71-1.43l-3.11-4.56-1.01.99v2.83c0,1.2.11,1.95.34,2.25.22.3.68.49,1.38.56v.61h-8.13v-.61c.66-.07,1.13-.28,1.41-.64.19-.25.29-.97.29-2.17v-15.99c0-1.19-.11-1.93-.33-2.22-.22-.29-.68-.48-1.37-.57v-.62h6.41v15.02l3.65-3.59c.75-.73,1.22-1.26,1.41-1.58.19-.32.28-.64.28-.94s-.12-.56-.37-.76c-.25-.2-.73-.35-1.45-.44v-.62h7.05v.62c-.67.03-1.26.19-1.77.48-.5.29-1.49,1.15-2.96,2.58l-1.72,1.68,3.7,5.42c1.49,2.2,2.38,3.44,2.66,3.7.38.38.86.59,1.45.64v.61ZM180.57,83.63c-.44.84-1.06,1.49-1.85,1.94-.8.45-1.68.67-2.64.67-.75,0-1.76-.24-3.01-.71-.34-.12-.57-.19-.69-.19-.37,0-.68.28-.93.84h-.56l-.27-5.66h.57c.51,1.48,1.2,2.59,2.08,3.33.88.74,1.71,1.11,2.5,1.11.54,0,.98-.17,1.32-.5s.51-.73.51-1.2c0-.54-.17-1-.51-1.4-.34-.39-1.09-.99-2.26-1.78-1.72-1.19-2.83-2.1-3.33-2.73-.74-.92-1.11-1.94-1.11-3.05,0-1.21.42-2.31,1.25-3.29.84-.98,2.05-1.47,3.63-1.47.85,0,1.68.21,2.47.62.3.17.55.25.74.25.2,0,.36-.04.49-.13.12-.08.32-.32.59-.72h.57l.25,5.37h-.57c-.68-1.59-1.39-2.68-2.13-3.27-.73-.58-1.47-.88-2.2-.88-.46,0-.85.15-1.18.46-.33.31-.49.67-.49,1.07,0,.3.11.6.34.88.36.46,1.36,1.25,3.01,2.37,1.65,1.12,2.74,2.06,3.26,2.84.52.78.78,1.65.78,2.62,0,.87-.22,1.73-.66,2.57"></path></svg>