<svg xmlns="http://www.w3.org/2000/svg" id="Capa_1" data-name="Capa 1" viewBox="0 0 130.47 36.79"><defs><style>
      .cls-1 {
        fill: #0e9ad3;
      }
    </style></defs><g><polygon class="cls-1" points="28.48 16.13 25.47 23.69 23.43 18.16 21.04 18.16 18.95 23.58 15.99 16.13 13.77 16.13 18.57 28.13 19.38 28.13 22.23 20.77 25.09 28.13 25.9 28.13 30.72 16.13 28.48 16.13"></polygon><path class="cls-1" d="M30.13,12.81v-5.35l-7.88,2.38-7.88-2.38v5.35l7.88-2.38,7.88,2.38ZM29.19,8.72v2.83l-4.68-1.41,4.68-1.41ZM15.3,11.55v-2.83l4.68,1.41-4.68,1.41Z"></path></g><g><path d="M39.6,24.33v-9.1h1.69v7.67h4.76v1.43h-6.45Z"></path><path d="M49.6,24.42c-.52,0-.98-.09-1.37-.27-.39-.18-.69-.42-.9-.74-.21-.32-.32-.67-.32-1.07s.09-.74.28-1.05c.19-.31.49-.56.92-.74.42-.18.99-.27,1.69-.27h2.02v1.08h-1.9c-.55,0-.92.09-1.11.27-.19.18-.29.4-.29.67,0,.29.12.52.35.69s.56.26.98.26.76-.09,1.07-.27c.32-.18.55-.45.7-.81l.26.98c-.16.41-.43.72-.83.95-.4.23-.91.34-1.53.34ZM51.78,24.33v-1.42l-.08-.29v-2.46c0-.48-.15-.85-.44-1.11-.29-.26-.73-.4-1.32-.4-.38,0-.76.06-1.13.18-.37.12-.69.29-.96.51l-.64-1.18c.38-.29.83-.5,1.34-.65.51-.15,1.04-.22,1.6-.22,1.01,0,1.79.24,2.34.73.55.49.82,1.23.82,2.24v4.07h-1.53Z"></path><path d="M57.37,24.33l-2.98-6.94h1.68l2.57,6.12h-.83l2.65-6.12h1.56l-2.98,6.94h-1.68Z"></path><path d="M65.1,24.42c-.52,0-.98-.09-1.37-.27-.39-.18-.69-.42-.9-.74-.21-.32-.32-.67-.32-1.07s.09-.74.28-1.05c.19-.31.49-.56.92-.74.42-.18.99-.27,1.69-.27h2.02v1.08h-1.9c-.55,0-.92.09-1.11.27-.19.18-.29.4-.29.67,0,.29.12.52.35.69s.56.26.98.26.76-.09,1.07-.27c.32-.18.55-.45.7-.81l.26.98c-.16.41-.43.72-.83.95-.4.23-.91.34-1.53.34ZM67.28,24.33v-1.42l-.08-.29v-2.46c0-.48-.15-.85-.44-1.11-.29-.26-.73-.4-1.32-.4-.38,0-.76.06-1.13.18-.37.12-.69.29-.96.51l-.64-1.18c.38-.29.83-.5,1.34-.65.51-.15,1.04-.22,1.6-.22,1.01,0,1.79.24,2.34.73.55.49.82,1.23.82,2.24v4.07h-1.53Z"></path><path d="M71.17,24.33v-6.94h1.55v1.88l-.27-.58c.23-.44.58-.78,1.05-1.03.46-.24,1-.36,1.61-.36.56,0,1.06.11,1.49.33.43.22.77.55,1.03,1,.26.45.38,1.03.38,1.73v3.98h-1.62v-3.77c0-.62-.14-1.07-.43-1.38s-.69-.46-1.22-.46c-.38,0-.72.08-1.01.23-.29.16-.52.39-.68.7-.16.31-.24.7-.24,1.16v3.51h-1.61Z"></path><path d="M83.27,24.42c-.67,0-1.27-.15-1.8-.44-.53-.29-.95-.71-1.25-1.24-.3-.53-.46-1.16-.46-1.88s.15-1.33.46-1.87c.3-.54.72-.95,1.25-1.25.53-.29,1.13-.44,1.8-.44.58,0,1.1.13,1.56.38s.82.65,1.09,1.17.4,1.19.4,2.01-.13,1.47-.39,2c-.26.53-.62.92-1.07,1.18-.46.26-.99.38-1.59.38ZM83.46,23.04c.39,0,.74-.09,1.05-.27.31-.18.55-.43.74-.77s.28-.72.28-1.15-.09-.83-.28-1.15c-.19-.32-.43-.58-.74-.75s-.66-.27-1.05-.27-.74.09-1.05.27-.55.43-.74.75c-.19.33-.28.71-.28,1.15s.09.82.28,1.15c.19.33.43.59.74.77.31.18.66.27,1.05.27ZM85.58,24.33v-1.64l.04-1.85-.13-1.85v-4.32h1.64v9.65h-1.55Z"></path><path d="M92.79,24.42c-.77,0-1.45-.15-2.02-.46-.58-.31-1.02-.73-1.34-1.26-.32-.53-.47-1.15-.47-1.84s.15-1.31.46-1.84c.31-.53.73-.95,1.27-1.26s1.16-.46,1.85-.46,1.28.15,1.81.45c.53.3.94.72,1.25,1.25.3.54.45,1.17.45,1.91,0,.06,0,.14,0,.23,0,.09-.01.17-.02.24h-5.79v-1.08h4.93l-.65.34c0-.39-.07-.74-.24-1.05s-.4-.55-.7-.72c-.29-.17-.64-.25-1.04-.25s-.74.08-1.05.25c-.31.17-.54.41-.71.72-.17.31-.25.67-.25,1.08v.26c0,.42.09.78.28,1.1.19.32.45.57.8.75.35.18.75.27,1.21.27.39,0,.74-.06,1.05-.2.31-.13.59-.32.83-.57l.88,1.01c-.32.36-.72.64-1.19.83-.47.19-1.01.29-1.62.29Z"></path><path d="M97.88,24.33v-6.94h1.55v1.91l-.18-.56c.2-.47.52-.83.98-1.07s1-.37,1.65-.37v1.55c-.06,0-.12-.02-.18-.02-.06,0-.12,0-.17,0-.62,0-1.12.18-1.48.53-.36.36-.55.9-.55,1.62v3.35h-1.61Z"></path><path d="M103.25,16.44l1.75-1.78h1.92l-2.28,1.78h-1.4ZM103.54,24.33v-6.94h1.61v6.94h-1.61Z"></path><path d="M109.63,24.42c-.52,0-.98-.09-1.37-.27-.39-.18-.69-.42-.9-.74-.21-.32-.32-.67-.32-1.07s.09-.74.28-1.05c.19-.31.49-.56.92-.74.42-.18.99-.27,1.69-.27h2.02v1.08h-1.9c-.55,0-.92.09-1.11.27-.19.18-.29.4-.29.67,0,.29.12.52.35.69s.56.26.98.26.76-.09,1.07-.27c.32-.18.55-.45.7-.81l.26.98c-.16.41-.43.72-.83.95-.4.23-.91.34-1.53.34ZM111.82,24.33v-1.42l-.08-.29v-2.46c0-.48-.15-.85-.44-1.11-.29-.26-.73-.4-1.32-.4-.38,0-.76.06-1.13.18-.37.12-.69.29-.96.51l-.64-1.18c.38-.29.83-.5,1.34-.65.51-.15,1.04-.22,1.6-.22,1.01,0,1.79.24,2.34.73.55.49.82,1.23.82,2.24v4.07h-1.53Z"></path></g></svg>